# xmcd CD database file
#
# Track frame offsets:
#	150
#	18188
#	35928
#	54901
#	75380
#	94705
#	116080
#	130642
#	148863
#	167347
#	185471
#	205482
#	227942
#
# Disc length: 3352 seconds
#
# Revision: 0
# Processed by: cddbd v1.5.1PL0 Copyright (c) Steve Scherf et al.
# Submitted via: CDex 1.51
#
DISCID=aa0d160d
DTITLE=LIONSHEART - Abyss
DYEAR=2004
DGENRE=Hard Rock
TTITLE0=Screaming
TTITLE1=Nightmare
TTITLE2=All I Got
TTITLE3=I Need Love
TTITLE4=How Can I Tell You
TTITLE5=I'm Alive
TTITLE6=Don't Waste My Time
TTITLE7=If You Cut Me
TTITLE8=Save Me
TTITLE9=Witchcraft
TTITLE10=How Long
TTITLE11=Abyss
TTITLE12=Only When I Sleep
EXTD=YEAR: 2004
EXTT0=
EXTT1=
EXTT2=
EXTT3=
EXTT4=
EXTT5=
EXTT6=
EXTT7=
EXTT8=
EXTT9=
EXTT10=
EXTT11=
EXTT12=
PLAYORDER=
